<svg xmlns="http://www.w3.org/2000/svg" data-name="Layer_1" viewBox="0 0 332 332"><path d="M-32.83-33h398v398h-398V-33Z" style="fill:none"/><path d="M332 82.92v166.17c0 45.79-37.12 82.92-82.92 82.92H82.92C37.12 332 0 294.88 0 249.08V82.92C0 37.12 37.12 0 82.92 0h166.17c45.79 0 82.92 37.12 82.92 82.92Zm-232.5 50.2c-9.11 0-16.5 7.39-16.5 16.5v81.95c0 9.86 8.08 17.82 17.9 16.99 8.46-.71 15.1-7.8 15.1-16.44v-82.5c0-9.11-7.39-16.5-16.5-16.5m100.25-.29a49.95 49.95 0 0 0-19.37 3.91l-2.07.95c-6.48-6.48-16.98-6.47-23.45 0a16.61 16.61 0 0 0-4.86 11.72v82.41c0 9.86 8.08 17.82 17.9 16.99 8.46-.71 15.1-7.8 15.1-16.44v-49.28c0-9.86 8.08-17.82 17.9-16.99 8.46.71 15.1 7.8 15.1 16.44v49.28c0 9.86 8.08 17.82 17.9 16.99 8.46-.71 15.1-7.8 15.1-16.44v-49.79c0-27.48-22.27-49.75-49.75-49.75M99.83 83.08c-8.41 0-15.48 6.29-16.47 14.64l-.12 2.11c.01 9.16 7.44 16.58 16.6 16.56 8.39 0 15.46-6.29 16.45-14.62l.12-2.11c0-9.16-7.42-16.58-16.58-16.58" style="fill:#0a66c2"/></svg>