<svg xmlns="http://www.w3.org/2000/svg" id="b" data-name="Layer_2" viewBox="0 0 5376.92 4301.95"><defs><style>.d{fill:#19a1f2}</style></defs><g id="c" data-name="a"><path d="M5375.22 949.01c2.12 536.27 1.73 2356.29 1.54 2522.97 6.55 375.18-255.71 726.66-626.46 806.43-57.81 14.26-143.37 22.93-194.82 23.12-297.14-1.93-2953.45 1.54-3748.71 0C368 4301.53-2.17 3928.28.72 3489.51c-2.12-176.7 1.16-1452.74 0-2139.7V966.73c.19-18.31-.96-21.2 10.6-13.68 174.58 111.19 2367.27 1591.67 2558.23 1701.51 74.19 35.65 203.87 29.1 275.36-18.31 205.03-134.12 2390.2-1600.15 2530.1-1687.05l.19-.19Z" class="d"/><path d="M4618.5 4.03c244.92 12.72 511.42 156.08 634.16 359.38 19.46 34.69-12.53 44.13-37.77 62.05-168.61 112.73-329.13 218.13-594.66 394.83-486.94 323.15-1033.04 686-1522.69 1010.88-129.68 86.33-246.84 163.79-371.13 246.46-41.04 26.4-33.14 27.94-68.99 4.43-789.08-527.59-1783.2-1176.4-2536.64-1688.59-14.07-43.93 102.32-151.65 151.46-196.36C399.23 87.66 564.75 23.69 730.66 6.92 1039.75-4.45 3759.08.95 4616.19 3.84h2.12l.19.19Z" class="d"/></g></svg>