<svg xmlns="http://www.w3.org/2000/svg" data-name="Layer_1" viewBox="0 0 722 722"><path d="M722 361c0 199.4-161.6 361-361 361S0 560.4 0 361 161.6 0 361 0s361 161.6 361 361Z" style="fill:#a6ce39"/><path d="M243.39 525.14h-43.43V223.09h43.43v302.06Zm63.74-302.05h117.32c111.68 0 160.76 79.81 160.76 151.17 0 77.56-60.64 151.17-160.19 151.17H307.13V223.09Zm43.43 263.13h69.1c98.43 0 120.99-74.74 120.99-111.97 0-60.64-38.64-111.97-123.25-111.97h-66.84v223.93Zm-100.4-326.03c0 15.51-12.69 28.49-28.49 28.49s-28.49-12.97-28.49-28.49 12.69-28.49 28.49-28.49 28.49 12.97 28.49 28.49Z" style="fill:#fff"/></svg>