<svg xmlns="http://www.w3.org/2000/svg" id="a" data-name="Layer_1" viewBox="0 0 1005 1005"><defs><style>.c{fill:#40ba9c}</style></defs><circle cx="502.5" cy="502.5" r="493.51" style="fill:#fff"/><path d="M492.43 472.67c0-52.55-32.81-81.5-88.17-81.5h-53.35v165.26c15.34 1.2 24.68 2 47.48 2 58.42 1.2 94.03-33.88 94.03-85.76m9.08 267.16a981.121 981.121 0 0 1-98.84-150.72h-50.95v109.91c0 40.81 9.34 49.35 27.21 51.89l34.15 4.67v19.07c-16.27 0-54.55-2-84.3-2s-61.76 1.2-79.5 2v-19.07l24.68-4.67c17.07-3.2 26.94-11.07 26.94-51.89V438.66c-.8-41.75-10.67-48.95-27.88-52.15l-24.68-4.4V362.9h69.23c26.41 0 59.76-2 98.84-2 74.16 0 132.18 34.15 132.18 107.91-2.27 54.02-40.15 99.9-92.7 112.44 27.74 50.02 60.96 96.7 98.84 139.52 16.14 19.61 39.21 32.15 64.42 34.81v17.07c-9.74 3.6-20.01 5.34-30.41 5.2-33.21.93-65.22-13.07-87.23-38.01M750.26 275.66c-11.6-28.14-36.95-48.55-74.96-48.55-23.74 0-43.22 8.54-58.42 24.14-21.87 22.14-21.61 47.22-21.61 90.57s-.27 68.43 21.61 90.57c15.34 15.47 35.35 24.14 58.42 24.14s44.42-7.6 61.36-25.61c14.67-15.87 20.01-34.55 20.01-63.76v-34.55h-77.09v29.21h43.22v12.67c0 14.54-3.07 26.01-11.2 35.48-8.8 10.14-21.61 15.87-36.28 15.87-13.07 0-25.08-5.07-32.81-13.61-10.94-12-13.47-25.08-13.47-70.29s2.53-58.02 13.47-70.03c7.87-8.54 19.74-14.01 32.81-14.01 21.74 0 36.95 11.07 44.28 30.28l30.68-12.54Z" class="c"/></svg>