<svg xmlns="http://www.w3.org/2000/svg" id="a" data-name="Layer_1" viewBox="0 0 6089.62 6089.62"><defs><style>.b{fill:#001f83}</style></defs><circle cx="3044.81" cy="3044.81" r="3005.69" style="fill:#fff"/><path d="M1295.44 2297.8c-6.06-441.64 352.08-691.3 771.08-706.49 12.56-1.01 27.23.36 33.81 11.99 3.05 4.72 4.72 11.92 5.9 17.67 36.86 173.4 158.27 296.01 298.58 391.02 60.28 40.52 124.18 75.11 189.09 107.6 461 227.47 922.64 453.6 1383.81 680.71 236.43 111.32 464.1 250.01 627.37 458.79 326.18 396.16 246.11 1026.67-296.54 1187.42-97.14 30.85-198.09 46.69-299.53 52.09-6.97-.73-12.82-3.33-16.63-10.19-65.26-318.34-368.78-461.95-634.87-588.41-394.35-194.79-788.37-390.29-1184.26-581.93-128.05-63.03-257.43-126.82-376.2-206.05-273.92-181.41-507.12-470.26-501.63-814.02v-.21Z" class="b"/><path d="M1606.98 1486.46c-.94-.93-1.34-2.35-1.42-3.67-.26-6.3 3.49-9.71 6.72-14.5 309.12-438.33 724.64-859.57 1285.3-914.45 414.74-40.08 856.55 48.85 1241.86 200.55 251.54 100.9 485.55 234.33 693.1 408.24.91.93 1.79 1.89 2.62 2.86 4.46 5.18 7 10.09 7.63 15.22.79 6.37-1.34 13.06-6.34 21.01-233.18 300.88-466.67 601.62-700.12 902.3-13.4 15.07-24.49 9.61-37.66-2.46-232.67-211.64-508.53-365.29-798.92-481.9-270.39-109.48-551.98-186.58-842.24-218.3-271.45-30.24-548.95-25.87-808.08 72.03-8.9 3.65-17.5 8.78-26.64 11.82-3.82 1.27-7.74 2.18-11.8 2.45-1.37.09-2.87-.11-3.9-1.07l-.12-.12ZM4489.16 4600.57c.27.35.22 1-.07 1.87-.15.46-.36.97-.6 1.51-5.14 11.34-10.95 21.39-17.04 30.61-164.37 223.44-340.84 439.34-563.27 607.45-238.44 183.58-525.61 291.91-829.49 302.06-336.92 11.53-678.66-53.18-996.19-160.31-295.84-103.39-577.71-253.7-819.85-454.14-3.03-2.48-6.46-5.38-9.2-8.35-3.92-4.25-6.12-8.26-6.65-12.44-.62-4.86 1-9.96 4.75-15.96 234.66-302.46 469.19-605.12 704.05-907.41 14.6-15.6 26.61-7.92 39.85 4.12 279.04 252.01 618.35 423 971.53 544.87 381.24 128.77 791.6 205.88 1194.18 152.71 95.43-13.9 191.48-37.16 282.88-71.43 13.16-4.74 26.78-9.66 41.15-14.71 1.09-.42 3.5-1.19 3.9-.51l.06.07Z" class="b"/></svg>